<svg xmlns="http://www.w3.org/2000/svg" width="191" height="178" fill="none"><mask id="a" width="191" height="178" x="0" y="0" maskUnits="userSpaceOnUse"><path fill="#C4C4C4" d="M0 0h191v178H0z"/></mask><g mask="url(#a)"><path fill="#fff" d="M0-1h191v179H0z"/><path fill="#FAD7A5" d="M182.9 161.204l-13.701-5.794c-1.82-.769-2.993-2.487-2.993-4.383v-8.873h-20.16v8.873c0 1.896-1.173 3.613-2.993 4.383l-13.702 5.794c-3.64 1.54-5.986 4.975-5.986 8.765v31.726h65.522V169.97c-.001-3.791-2.346-7.226-5.987-8.766z"/><path fill="#FFE1B4" d="M156.536 148.129h-.82c-8.673 0-15.705-7.031-15.705-15.704v-14.223h32.229v14.223c0 8.673-7.031 15.704-15.704 15.704z"/><path fill="#FAD7A5" d="M149.22 132.015v-13.812h-9.209v13.812c0 8.9 7.215 16.115 16.115 16.115 1.601 0 3.144-.242 4.604-.676-6.655-1.983-11.51-8.141-11.51-15.439z"/><path fill="#D59F63" d="M158.428 106.692h-4.604c-8.9 0-16.115 7.215-16.115 16.115v3.683c0 1.706 1.81 2.864 3.319 2.068 2.336-1.232 5.075-3.53 6.916-6.009.743-1.001 2.173-1.15 3.172-.404 7.305 5.451 17.48 4.198 21.593 3.386a2.287 2.287 0 001.833-2.254v-.469c0-8.901-7.214-16.116-16.114-16.116z"/><path fill="#CD915A" d="M141.028 128.558c2.336-1.232 5.075-3.53 6.916-6.009.282-.38.674-.596 1.093-.728-3.255-4.531-3.477-9.581-3.072-13.075-4.923 2.757-8.255 8.017-8.255 14.06v3.683c-.001 1.707 1.809 2.865 3.318 2.069z"/><path fill="#DBD9DC" d="M182.9 161.204l-13.701-5.794c-1.104-.467-1.925-1.304-2.436-2.296l-10.711 9.784-10.609-9.691c-.516.95-1.321 1.75-2.391 2.203l-13.701 5.794c-3.64 1.54-5.986 4.975-5.986 8.765v31.726h65.522V169.97c-.001-3.791-2.346-7.226-5.987-8.766z"/><path fill="#E6AF78" d="M52.404 167.679l-10.643-3.991a5.184 5.184 0 01-3.364-4.853v-6.65h-15.55v6.65c0 2.16-1.34 4.094-3.363 4.853l-10.643 3.991a10.367 10.367 0 00-6.727 9.707v24.309h57.017v-24.309c0-4.321-2.68-8.189-6.727-9.707z"/><path fill="#DBD9DC" d="M2.114 201.695h57.017v-24.309c0-4.321-2.68-8.19-6.726-9.707l-10.237-3.838-7.88 7.879a5.184 5.184 0 01-7.33 0l-7.88-7.879-10.238 3.838a10.367 10.367 0 00-6.726 9.707v24.309z"/><path fill="#F0C087" d="M30.723 154.776h-.2c-9.964 0-18.042-8.077-18.042-18.042v-7.975c0-9.964 8.077-18.042 18.042-18.042h.2c9.964 0 18.042 8.078 18.042 18.042v7.975c0 9.965-8.078 18.042-18.042 18.042z"/><path fill="#E6AF78" d="M22.848 136.634v-7.775c0-8.217 5.466-15.149 12.958-17.38a18.105 18.105 0 00-5.183-.762c-10.02 0-18.142 8.123-18.142 18.143v7.775c0 10.019 8.122 18.142 18.142 18.142 1.802 0 3.54-.272 5.183-.761-7.492-2.232-12.958-9.165-12.958-17.382z"/><path fill="#6E4B53" d="M30.623 121.083c5.726 0 10.367-4.641 10.367-10.367 0-5.725-4.641-10.366-10.367-10.366-5.725 0-10.366 4.641-10.366 10.366 0 5.726 4.641 10.367 10.366 10.367z"/><path fill="#5C414B" d="M12.48 128.859v5.816c2.871-1.36 6.388-3.504 9.078-6.694.786-.932 2.13-1.124 3.193-.527 3.417 1.919 11.429 5.575 24.013 6.402v-4.996c0-10.02-8.122-18.143-18.142-18.143-10.019 0-18.141 8.123-18.141 18.142z"/><path fill="#503441" d="M20.718 113.671c-4.956 3.238-8.237 8.826-8.237 15.189v5.815c2.87-1.359 6.387-3.504 9.077-6.694a2.43 2.43 0 011.577-.836c-1.92-3.649-3.42-8.407-2.417-13.474z"/><path fill="#EDEBED" d="M13.17 181.166l-9.386-9.385a10.334 10.334 0 00-1.67 5.605v24.309h13.678v-14.198a8.956 8.956 0 00-2.622-6.331z"/><path fill="#B48764" d="M128.078 151.782l-16.226-7.511c-2.155-.998-3.544-3.225-3.544-5.682v-11.503H84.433v11.503c0 2.457-1.39 4.684-3.544 5.681l-16.226 7.512c-4.311 1.996-7.09 6.449-7.09 11.363v38.55h77.595l-.001-38.549c0-4.915-2.778-9.368-7.089-11.364z"/><path fill="#5D5360" d="M57.574 201.695h77.593v-38.549c0-4.914-2.778-9.368-7.089-11.363l-16.115-7.461-11.372 11.372a5.97 5.97 0 01-8.44 0l-11.373-11.372-16.115 7.461c-4.311 1.995-7.09 6.448-7.09 11.363v38.549z"/><path fill="#C39772" d="M96.37 139.023c-11.537 0-20.89-9.353-20.89-20.89v-17.907h41.781v17.907c0 11.537-9.353 20.89-20.89 20.89z"/><path fill="#B48764" d="M87.417 118.133v-17.907H75.48v17.907c0 11.537 9.353 20.89 20.89 20.89 2.076 0 4.077-.313 5.969-.876-8.627-2.57-14.922-10.552-14.922-20.014z"/><path fill="#5C414B" d="M99.355 85.304h-5.969c-11.537 0-20.89 9.353-20.89 20.891v4.774c0 2.212 2.346 3.714 4.302 2.682 3.028-1.597 6.579-4.576 8.965-7.79.964-1.298 2.817-1.491 4.113-.524 9.47 7.067 22.66 5.443 27.992 4.39 1.39-.274 2.377-1.507 2.377-2.923v-.609c.001-11.538-9.352-20.89-20.89-20.89z"/><path fill="#503441" d="M76.799 113.651c3.027-1.597 6.578-4.576 8.965-7.79.365-.492.874-.773 1.416-.944-4.219-5.873-4.507-12.42-3.983-16.95-6.381 3.574-10.701 10.393-10.701 18.228v4.774c0 2.212 2.346 3.713 4.303 2.682z"/><path fill="#6F6571" d="M72.496 175.56a8.952 8.952 0 00-2.623-6.331l-11.225-11.225a12.851 12.851 0 00-1.074 5.141v38.55h14.922V175.56zM120.245 175.56c0-2.375.943-4.652 2.622-6.331l11.225-11.225a12.845 12.845 0 011.075 5.141v38.55h-14.922V175.56z"/><path fill="#EDEBED" d="M188.886 201.695V169.97c0-1.948-.628-3.797-1.724-5.348l-7.591 7.592a8.953 8.953 0 00-2.622 6.331v23.15h11.937z"/><path fill="#000" d="M128.408 151.243l-16.258-7.226a3.184 3.184 0 01-1.89-2.909v-4.464c5.461-4.352 8.972-11.053 8.972-18.563v-6.284a5.799 5.799 0 002.99-5.067v-.61c0-13.085-10.646-23.731-23.73-23.731H92.51c-13.085 0-23.731 10.646-23.731 23.731v5.534c0 1.891.814 3.605 2.233 4.701.24.186.493.349.757.491v1.235c0 7.51 3.51 14.211 8.971 18.562v4.465a3.185 3.185 0 01-1.89 2.908l-16.258 7.226a14.774 14.774 0 00-8.765 13.488v37.082a2.798 2.798 0 005.595 0V164.73c0-.324.024-.645.057-.963l7.492 7.492a6.133 6.133 0 011.808 4.365v26.188a2.798 2.798 0 105.596 0v-26.188c0-3.143-1.224-6.099-3.447-8.322l-8.931-8.931a9.132 9.132 0 012.868-2.015l15.984-7.104 11.854 11.853v40.707a2.798 2.798 0 005.595 0v-40.706l11.854-11.854 15.983 7.104a9.13 9.13 0 012.869 2.015l-8.931 8.931a11.693 11.693 0 00-3.447 8.322v26.188a2.797 2.797 0 105.595 0v-26.188a6.13 6.13 0 011.809-4.365l7.491-7.491c.033.318.056.637.056.962v37.082a2.798 2.798 0 005.596 0V164.73a14.773 14.773 0 00-8.766-13.487zm-51.042-33.162v-1.258c1.746-.692 3.45-1.793 5.08-3.298a2.798 2.798 0 00-3.794-4.112c-1.4 1.291-2.798 2.126-4.155 2.48a.375.375 0 01-.074.014.568.568 0 01-.048-.253v-5.534c0-10 8.136-18.135 18.135-18.135h5.98c10.001 0 18.136 8.136 18.136 18.135v.61c0 .091-.055.169-.126.184-16.754 3.308-25.157-2.928-27.993-5.763a2.797 2.797 0 10-3.956 3.957c8.688 8.688 21.366 8.845 29.085 7.917v5.056c0 10-8.136 18.135-18.135 18.135-10 0-18.135-8.135-18.135-18.135zM95.5 141.812c3.246 0 6.342-.656 9.163-1.842v1.138c0 1.611.446 3.15 1.237 4.481l-10.4 10.401-10.402-10.401a8.765 8.765 0 001.238-4.481v-1.138a23.61 23.61 0 009.164 1.842zM50.452 130.043c0-7.299-3.793-13.725-9.509-17.422.353-1.132.537-2.318.537-3.511 0-6.49-5.28-11.769-11.769-11.769-6.49 0-11.768 5.28-11.768 11.769 0 1.208.182 2.382.536 3.512-5.715 3.697-9.508 10.122-9.508 17.421v5.981c0 7.068 3.556 13.318 8.971 17.064v6.153a3.167 3.167 0 01-1.76 2.847l-9.676 4.838A11.706 11.706 0 000 177.453v24.36a2.798 2.798 0 005.596 0v-23.15l4.558 4.558a6.134 6.134 0 011.808 4.366v14.226a2.798 2.798 0 005.596 0v-14.226c0-3.144-1.225-6.099-3.447-8.322l-6.344-6.344c-.03-.031-.064-.057-.095-.086a6.244 6.244 0 011.336-.903l9.678-4.839a8.924 8.924 0 001.387-.866l6.84 6.841v28.745a2.798 2.798 0 005.596 0v-28.745l6.841-6.841c.43.325.892.618 1.387.866l2.669 1.334a2.798 2.798 0 002.503-5.004l-2.669-1.335a3.164 3.164 0 01-1.76-2.846v-6.153c5.415-3.746 8.972-9.997 8.972-17.064v-5.982zM23.538 109.11a6.18 6.18 0 016.173-6.173 6.18 6.18 0 016.076 7.275 20.675 20.675 0 00-6.076-.909c-2.11 0-4.147.318-6.066.907a6.223 6.223 0 01-.107-1.1zm6.173 5.789c8.351 0 15.145 6.794 15.145 15.144v1.014c-11.648 3.567-18.59-5.294-18.887-5.683a2.8 2.8 0 00-4.217-.299c-2.67 2.67-5.286 3.958-7.175 4.58.207-8.172 6.914-14.756 15.134-14.756zm6.466 46.587l-6.466 6.466-6.465-6.466a8.856 8.856 0 00.292-2.245v-3.415c1.95.609 4.025.938 6.173.938 2.15 0 4.223-.329 6.174-.938v3.415c0 .772.103 1.524.292 2.245zm-6.466-10.318c-8.35 0-15.144-6.794-15.144-15.144v-.58c2.231-.513 5.54-1.704 8.99-4.479a25.241 25.241 0 005.189 3.777c2.628 1.433 6.258 2.76 10.692 2.76 1.685 0 3.488-.196 5.394-.646-.434 7.965-7.05 14.312-15.12 14.312zM184.495 160.946l-15.658-7.829a3.167 3.167 0 01-1.759-2.847v-3.965c3.665-3.254 5.98-7.997 5.98-13.271v-3.185l.193.002a2.798 2.798 0 002.798-2.798v-5.981c0-9.787-7.963-17.75-17.75-17.75h-5.981c-9.787 0-17.75 7.963-17.75 17.75v5.981a2.798 2.798 0 002.99 2.793v3.188c0 5.275 2.316 10.017 5.981 13.271v3.965a3.164 3.164 0 01-1.759 2.847 2.797 2.797 0 102.502 5.005 8.964 8.964 0 001.388-.866l6.84 6.841v37.716a2.798 2.798 0 005.596 0v-37.717l6.841-6.841c.43.326.891.619 1.387.866l15.151 7.576-4.595 4.596a11.691 11.691 0 00-3.447 8.322v23.197a2.798 2.798 0 105.596 0v-23.197c0-1.649.642-3.199 1.808-4.366l4.353-4.353c.132.506.204 1.034.204 1.576v30.34a2.798 2.798 0 105.596 0v-30.34c0-4.486-2.492-8.52-6.505-10.526zm-44.331-39.874c0-6.702 5.452-12.154 12.154-12.154h5.981c6.701 0 12.154 5.452 12.154 12.154v3.108c-12.163-.657-19.502-5.389-19.574-5.436a2.794 2.794 0 00-3.53.35c-2.677 2.677-5.3 3.965-7.186 4.585l.001-2.607zm2.99 7.451c1.96-.783 4.243-2.028 6.566-4.007 2.938 1.529 9.085 4.171 17.743 5.044v3.474c0 6.701-5.453 12.154-12.155 12.154-6.701 0-12.154-5.452-12.154-12.154v-4.511zm12.154 22.26c2.17 0 4.25-.393 6.174-1.109v.596c0 .772.102 1.524.292 2.245l-6.466 6.466-6.465-6.466a8.842 8.842 0 00.292-2.245v-.596a17.661 17.661 0 006.173 1.109z"/></g></svg>